<svg xmlns="http://www.w3.org/2000/svg" viewBox="0 0 400 400"><defs><style>.a{fill:#fff;fill-rule:evenodd;}</style></defs><title>boneID</title><path class="a" d="M131.94,240.88l112.48-90s-15.79-36.52-4.26-48.05,32.51-18.53,36.55-10.24c7.47,15.33,22.5,24.76,27.78,14.62,4.26-8.18,21.75,32.33,8.77,43.87s-46.38,11.72-46.38,11.72L168,264.78s11.53,44.68-10.09,46.12-31.71-14.41-30.27-20.18c.15-.59,13.06-.25,13.06-.71,0-4.39-15.26-4-16.08-4.39-4.54-2-15.56.18-28.69-10.76-17.3-14.41-18.18-26.65-4.32-38.92S131.94,240.88,131.94,240.88Z"/></svg>