<svg xmlns="http://www.w3.org/2000/svg" viewBox="0 0 100 100"><defs><style>.a{fill:#fff;}</style></defs><title>skinBtn</title><path class="a" d="M24.8,76.14a26.18,26.18,0,0,1-5.22,7.33,44.21,44.21,0,0,0,17.65,7.62c1.33-1.07,2.66-2.13,4-3.14,3.13-2.33,3.72-5.21,1-8a39.93,39.93,0,0,0-8.41-6.41C28.89,70.68,27.16,71.24,24.8,76.14Z"/><path class="a" d="M8.71,72.22q.85,1.26,1.78,2.46c1.16-6.85,2-13.77,3.25-20.6,1.39-7.5,3.45-14.84,8.85-20.68,7.61-8.24,17.65-12.66,27.71-16.66,6.19-2.46,12.42-4.8,18.67-7.1q-1.33-.82-2.72-1.56c-11.48,4.19-23.09,8.07-33.77,14.15C22.9,27.69,15.73,35.63,13.15,46.46,11.13,54.92,10.11,63.61,8.71,72.22Z"/><path class="a" d="M46.24,88.92c-1.17.93-2.31,1.9-3.45,2.87.93.06,1.86.09,2.8.09A44.65,44.65,0,0,0,54.31,91l-.26-.51C52.31,87,49.35,86.43,46.24,88.92Z"/><path class="a" d="M67.34,56.7c-1.89-2.33-4.28-2.62-6.92-.62C58.21,57.76,56.2,59.7,54,61.4a4.05,4.05,0,0,1-2.28.55c-2.91,0-4.26-.52-6.3,2.27-3.45,4.72-3.6,6.09,2.37,7.1l.95.47c.19-.5.3-.63,1.89-.95,2.37-.47,4.6-.36,4.4-4.46.64,0,1.46-.22,1.9.09,4.47,3.19,7.23.13,10.08-2.65C69.7,61.2,69.77,59.69,67.34,56.7Z"/><path class="a" d="M64.53,83.57c-1.17.59-2.8.28-4.23.38L59,85.16c-1.33,2-1.35,3.47-.14,4.69A44.26,44.26,0,0,0,71,83.91C69,82.46,67.14,82.26,64.53,83.57Z"/><path class="a" d="M59.55,82.82c.72-.68,1.41-1.4,2.18-2,2.58-2.08,2.57-3.63-.08-5.52-3.46-2.46-6.66-2.39-10.24.19a8.18,8.18,0,0,1-1.51.68l0,0c.5,2.14-.7,5,2.51,6,2,.61,4.12,1.08,6.18,1.61Z"/><path class="a" d="M86.85,57c-2,1.32-4.13,2.58-6,4.08a12,12,0,0,0-2,2.69c.57,2.46.72,4.55,1.59,6.28a3.79,3.79,0,0,0,2.75,1.16A44.17,44.17,0,0,0,89.25,55.8,8.64,8.64,0,0,0,86.85,57Z"/><path class="a" d="M84.05,49.4c-.72-2.48-3.86-5-5.71-4.54-1.25.29-7.82,6.58-7.7,7.4a3,3,0,0,0,.42,1.08c1.39,2.28,3.21,5.18,5.93,4C80,56,82.22,53,84.42,51.15,84.16,49.9,84.12,49.65,84.05,49.4Z"/><path class="a" d="M85.55,37.33c-.88,1.29-2.33,3.76-2,4.05,2,1.8,5.23,4.89,6.46,4.32a44.34,44.34,0,0,0-1.92-11.33A14.73,14.73,0,0,0,85.55,37.33Z"/><path class="a" d="M52.41,45.58c-.88,1.24-1.89,2.41-2.68,3.7-1.3,2.11.62,5.54,3,5.55,3.47,0,8.81-4.63,9.17-8.1a2.86,2.86,0,0,0-.62-2C57.84,41.1,55.39,41.38,52.41,45.58Z"/><path class="a" d="M70.24,77.61c5.5-1.57,7.16-2.67,7.12-7.86-.12-1.71-.38-5.29-3.3-3.92-6.5,3.05-9.23,2.28-9.22,6.18C64.85,74.66,67.9,78.28,70.24,77.61Z"/><path class="a" d="M62.58,32.71c-.88,1.07-2.24,2.76-1.91,3.56C61.15,37.42,63,38,64.35,39c1.4-.76,3-1.09,3.47-2a121.51,121.51,0,0,0,5.06-12.52c.23-.67-1.1-2.59-1.88-2.7a5.23,5.23,0,0,0-3.46,1.46,3.51,3.51,0,0,0-1.09,2.72C67,29.34,64.26,30.66,62.58,32.71Z"/><path class="a" d="M46.9,26c-1.23,2.83-1.72,6-3,8.79s-1.3,4.9,1,7l0,0c1.16-1.27,2.71-2.36,3.42-3.85,1.55-3.27.26-7.33,2.8-10.51.42-.53-.69-2.29-1.1-3.49C49,24.6,47.32,25,46.9,26Z"/><path class="a" d="M36.81,52.3c-.3,1.2.39,3.74,1,3.89A7.25,7.25,0,0,0,43,55.55c2-1.3,2.25-8.24.93-10.71l0,0C40,45,38.22,46.73,36.81,52.3Z"/><path class="a" d="M31.45,65.47c.36,1.57,3,3.13,4.88,3.73,2.27.72,4.52-2.73,4.95-7.77-.36-.33-1-1.51-1.88-1.65C35.47,59.13,30.73,62.32,31.45,65.47Z"/></svg>