<?xml version="1.0" encoding="utf-8"?>
<!-- Generator: Adobe Illustrator 21.1.0, SVG Export Plug-In . SVG Version: 6.00 Build 0)  -->
<svg version="1.1" id="Layer_1" xmlns="http://www.w3.org/2000/svg" xmlns:xlink="http://www.w3.org/1999/xlink" x="0px" y="0px"
	 viewBox="0 0 100 100" style="enable-background:new 0 0 100 100;" xml:space="preserve">
<style type="text/css">
	.st0{opacity:0.75;fill:#3356A0;enable-background:new    ;}
	.st1{fill:#1B9DFF;}
	.st2{fill:#0091FF;}
	.st3{fill:#FFFFFF;}
	.st4{fill:#EEEEEE;}
	.st5{fill:#575757;}
</style>
<title>circle-marker</title>
<path class="st0" d="M50,92.5c-23.5,0-42.5-19-42.5-42.5S26.5,7.5,50,7.5s42.5,19,42.5,42.5S73.5,92.5,50,92.5z"/>
<rect x="-837" y="-440" class="st1" width="374" height="202"/>
<rect x="-334" y="-440" class="st2" width="374" height="202"/>
<rect x="-324" y="260" class="st2" width="374" height="202"/>
<rect x="-1018" y="128" class="st3" width="374" height="202"/>
<rect x="-463" y="208" class="st4" width="374" height="202"/>
<rect x="-587" y="-381" class="st1" width="70" height="122"/>
<circle class="st3" cx="-1008" cy="-272.9" r="33.6"/>
<circle class="st1" cx="-987.7" cy="-269.8" r="23"/>
<circle class="st3" cx="-973.6" cy="-271.9" r="23"/>
<circle class="st3" cx="-994.4" cy="-282.7" r="23"/>
<circle class="st1" cx="-1008" cy="-271.9" r="27.3"/>
<image style="overflow:visible;" width="960" height="540" xlink:href="../../../../../assets/kruzof/tip-skull.png"  transform="matrix(0.1194 0 0 0.1194 -1064.3284 -300.6962)">
</image>
<image style="overflow:visible;" width="960" height="540" xlink:href="../../../../../assets/kruzof/tip-skull.png"  transform="matrix(0.1194 0 0 0.1194 -960.7488 -311.3333)">
</image>
<image style="overflow:visible;" width="1434" height="806" xlink:href="../../../../../../../Screenshots/Screen Shot 2018-05-13 at 9.56.29 AM.png"  transform="matrix(1 0 0 1 -2265 -1263.965)">
</image>
<circle class="st3" cx="-2083.2" cy="-856.4" r="32.2"/>
<path class="st3" d="M-1942.7-657.3h-279c-5,0-9-4-9-9v-184c0-5,4-9,9-9h279c5,0,9,4,9,9v184
	C-1933.7-661.4-1937.8-657.3-1942.7-657.3z"/>
<path class="st1" d="M-2068.3-844.2c-0.5,0-0.9,0-1.4,0c-6.2,0-11.9-2.5-16.1-6.5c1.7,11,11.2,19.4,22.7,19.4
	c3.7,0,7.3-0.9,10.4-2.5C-2059.2-834.8-2064.9-838.7-2068.3-844.2z"/>
<circle class="st1" cx="-2083.2" cy="-856.4" r="27.3"/>
<image style="overflow:visible;" width="960" height="540" xlink:href="../../../../../assets/kruzof/tip-skull.png"  transform="matrix(0.1194 0 0 0.1194 -2139.582 -885.1667)">
</image>
<rect x="-2206.5" y="-812.7" style="fill:none;" width="248.5" height="98.5"/>
<text transform="matrix(1 0 0 1 -2191.1006 -797.5677)"><tspan x="0" y="0" class="st5" style="font-family:'SofiaProSemiBold'; font-size:21px;">Welcome to the Kruzof </tspan><tspan x="6.4" y="25.2" class="st5" style="font-family:'SofiaProSemiBold'; font-size:21px;">Whale Puzzle. Let me </tspan><tspan x="19.2" y="50.4" class="st5" style="font-family:'SofiaProSemiBold'; font-size:21px;">show you arround.</tspan></text>
<path class="st1" d="M-2113.3-682h-74.5c-3.3,0-6-2.7-6-6v-24.5c0-3.3,2.7-6,6-6h74.5c3.3,0,6,2.7,6,6v24.5
	C-2107.3-684.7-2110-682-2113.3-682z"/>
<path class="st1" d="M-1979.4-682h-74.5c-3.3,0-6-2.7-6-6v-24.5c0-3.3,2.7-6,6-6h74.5c3.3,0,6,2.7,6,6v24.5
	C-1973.4-684.7-1976.1-682-1979.4-682z"/>
<rect x="-2197" y="-706.2" style="fill:none;" width="93" height="23.2"/>
<text transform="matrix(1 0 0 1 -2186.6147 -695.4351)" class="st3" style="font-family:'SofiaProMedium'; font-size:15px;">No thanks.</text>
<rect x="-2063.1" y="-706.2" style="fill:none;" width="93" height="23.2"/>
<text transform="matrix(1 0 0 1 -2051.251 -695.4351)" class="st3" style="font-family:'SofiaProMedium'; font-size:15px;">Let’s do it.</text>
<circle class="st3" cx="-1549" cy="-856.4" r="32.2"/>
<path class="st3" d="M-1408.5-657.3h-279c-5,0-9-4-9-9v-184c0-5,4-9,9-9h279c5,0,9,4,9,9v184
	C-1399.5-661.4-1403.5-657.3-1408.5-657.3z"/>
<path class="st1" d="M-1534-844.2c-0.5,0-0.9,0-1.4,0c-6.2,0-11.9-2.5-16.1-6.5c1.7,11,11.2,19.4,22.7,19.4c3.7,0,7.3-0.9,10.4-2.5
	C-1525-834.8-1530.6-838.7-1534-844.2z"/>
<circle class="st1" cx="-1549" cy="-856.4" r="27.3"/>
<image style="overflow:visible;" width="960" height="540" xlink:href="../../../../../assets/kruzof/tip-skull.png"  transform="matrix(0.1194 0 0 0.1194 -1605.3334 -885.1667)">
</image>
<rect x="-1672.2" y="-818.8" style="fill:none;" width="248.5" height="98.5"/>
<text transform="matrix(1 0 0 1 -1623.6226 -810.1815)"><tspan x="0" y="0" class="st5" style="font-family:'SofiaProSemiBold'; font-size:12px;">This is your bone shelf. </tspan><tspan x="-40.9" y="24" class="st5" style="font-family:'SofiaProSemiBold'; font-size:20px;">You can drag bones from </tspan><tspan x="-30.2" y="48" class="st5" style="font-family:'SofiaProSemiBold'; font-size:20px;">here  into the 3D space </tspan><tspan x="-41.4" y="72" class="st5" style="font-family:'SofiaProSemiBold'; font-size:20px;">above to begin assembly.</tspan></text>
<path class="st1" d="M-1569-682h-94.5c-3.7,0-6.7-3-6.7-6.7v-23.1c0-3.7,3-6.7,6.7-6.7h94.5c3.7,0,6.7,3,6.7,6.7v23.1
	C-1562.3-685-1565.3-682-1569-682z"/>
<path class="st1" d="M-1445.1-682h-74.5c-3.3,0-6-2.7-6-6v-24.5c0-3.3,2.7-6,6-6h74.5c3.3,0,6,2.7,6,6v24.5
	C-1439.1-684.7-1441.8-682-1445.1-682z"/>
<rect x="-1662.8" y="-706.2" style="fill:none;" width="93" height="23.2"/>
<text transform="matrix(1 0 0 1 -1659.1384 -695.4351)" class="st3" style="font-family:'SofiaProMedium'; font-size:15px;">Let me start.</text>
<rect x="-1528.9" y="-706.2" style="fill:none;" width="93" height="23.2"/>
<text transform="matrix(1 0 0 1 -1497.9448 -695.4351)" class="st3" style="font-family:'SofiaProMedium'; font-size:15px;">Next</text>
<polygon class="st3" points="-1548,-643.4 -1534.9,-657.3 -1561.1,-657.3 "/>
</svg>
